<svg xmlns="http://www.w3.org/2000/svg" viewBox="0 0 997.02 372.49"><defs><style>.cls-1,.cls-2{fill:#f5c246;}.cls-2{stroke:#f5c246;stroke-miterlimit:10;stroke-width:5px;}</style></defs><title>logo_mono</title><g id="Layer_2" data-name="Layer 2"><g id="Default"><circle class="cls-1" cx="36.52" cy="36.52" r="36.52"/><circle class="cls-1" cx="29.58" cy="342.91" r="29.58"/><circle class="cls-1" cx="265.46" cy="186.24" r="32.87"/><path class="cls-1" d="M257.36,286.54a43,43,0,0,0-12.5,1.25,49.26,49.26,0,0,1-41.49-8.34l-57.79-43.11a48.82,48.82,0,0,1-19.08-44q.28-3,.29-6.11c0-2.05-.1-4.09-.29-6.1a48.82,48.82,0,0,1,19.08-44L203.37,93a49.27,49.27,0,0,1,41.49-8.35A42.69,42.69,0,0,0,257.36,86,43,43,0,1,0,212.44,40.9c0,.16,0,.33,0,.5a47.6,47.6,0,0,1-18.91,36.54l-58.13,43.37a49.45,49.45,0,0,1-48.18,6.16A63.4,63.4,0,1,0,87.26,245a49.39,49.39,0,0,1,48.12,6.19l58.12,43.37a47.58,47.58,0,0,1,18.92,36.54c0,.17,0,.34,0,.5a43,43,0,1,0,44.92-45Z"/><path class="cls-2" d="M407.64,274.22q-20.14-12.24-31-34.75t-10.84-53.09q0-30.85,10.7-53.5t30.86-34.74Q427.52,86,455,86t47.67,12.1q20.15,12.09,30.85,34.74t10.71,53.22q0,30.59-10.84,53.23t-31,34.89Q482.28,286.45,455,286.44T407.64,274.22ZM503.54,246q17.35-21,17.37-59.9t-17.23-59.75Q486.43,105.5,455,105.5q-31.12,0-48.5,21T389.16,186.1q0,38.64,17.37,59.76T455,267Q486.16,267,503.54,246Z"/><path class="cls-2" d="M725.3,275.05a9.82,9.82,0,0,1-3.19,7.09,10.16,10.16,0,0,1-7.37,3.19q-3.62,0-7.5-3.33l-104-90.89v82.83a11.71,11.71,0,0,1-3.06,8.47,12.47,12.47,0,0,1-16.68,0,11.71,11.71,0,0,1-3.06-8.47V98.55a11.77,11.77,0,0,1,3.06-8.48,12.5,12.5,0,0,1,16.68,0,11.77,11.77,0,0,1,3.06,8.48v79.77l99.22-88.11a9.91,9.91,0,0,1,7.23-3A9.68,9.68,0,0,1,717,90.35a10.07,10.07,0,0,1,3,7.09,10.86,10.86,0,0,1-3.61,7.78l-89.78,78.94L721.41,267A10.8,10.8,0,0,1,725.3,275.05Z"/><path class="cls-2" d="M939.49,275.88a8.86,8.86,0,0,1-3.19,6.95,11.32,11.32,0,0,1-7.65,2.78q-6.95,0-9.73-6.67l-19.73-45H794.4l-20,45q-2.77,6.68-9.73,6.67a11.43,11.43,0,0,1-7.78-2.92,9.09,9.09,0,0,1-3.34-7.09,9.74,9.74,0,0,1,1.12-4.44L834.15,94.38a12,12,0,0,1,5-5.83,14.08,14.08,0,0,1,7.23-2,13.84,13.84,0,0,1,7.5,2.08,13.07,13.07,0,0,1,5,5.7l79.49,176.78A10.43,10.43,0,0,1,939.49,275.88ZM802.74,215h88.11l-44.19-99.78Z"/><path class="cls-2" d="M974.79,282.41a11.71,11.71,0,0,1-3.06-8.47V98.55a11.77,11.77,0,0,1,3.06-8.48,12.5,12.5,0,0,1,16.68,0,11.81,11.81,0,0,1,3,8.48V273.94a11.75,11.75,0,0,1-3,8.47,12.47,12.47,0,0,1-16.68,0Z"/></g></g></svg>