<?xml version="1.0" encoding="utf-8"?>
<!-- Generator: Adobe Illustrator 23.0.1, SVG Export Plug-In . SVG Version: 6.00 Build 0)  -->
<svg version="1.1" id="Layer_1" xmlns="http://www.w3.org/2000/svg" xmlns:xlink="http://www.w3.org/1999/xlink" x="0px" y="0px"
	 viewBox="0 0 997 372.5" style="enable-background:new 0 0 997 372.5;" xml:space="preserve">
<style type="text/css">
	.st0{fill:#FFFFFF;}
	.st1{fill:#FFFFFF;stroke:#FFFFFF;stroke-width:5;stroke-miterlimit:10;}
</style>
<title>logo_mono</title>
<g>
	<g id="Default">
		<circle class="st0" cx="36.5" cy="36.5" r="36.5"/>
		<circle class="st0" cx="29.6" cy="342.9" r="29.6"/>
		<circle class="st0" cx="265.5" cy="186.2" r="32.9"/>
		<path class="st0" d="M257.4,286.5c-4.2-0.2-8.4,0.2-12.5,1.3c-14.4,3.6-29.6,0.5-41.5-8.3l-57.8-43.1c-13.6-10.3-20.9-27-19.1-44
			c0.2-2,0.3-4,0.3-6.1c0-2.1-0.1-4.1-0.3-6.1c-1.8-17,5.5-33.7,19.1-44L203.4,93c11.9-8.9,27.1-12,41.5-8.3
			c4.1,1.1,8.3,1.5,12.5,1.3c23.7-1.1,42.1-21.2,41-44.9c-1.1-23.7-21.2-42.1-44.9-41c-22.1,1-39.9,18.7-41,40.8c0,0.2,0,0.3,0,0.5
			c-0.4,14.4-7.4,27.9-18.9,36.5l-58.1,43.4c-13.9,10.3-32.1,12.7-48.2,6.2c-32.5-13.1-69.4,2.5-82.5,35s2.5,69.4,35,82.5
			c15.3,6.2,32.3,6.2,47.6,0c16-6.5,34.3-4.2,48.1,6.2l58.1,43.4c11.5,8.7,18.5,22.1,18.9,36.5c0,0.2,0,0.3,0,0.5
			c1.1,23.7,21.3,42,45,40.9c23.7-1.1,42-21.3,40.9-45C297.3,305.3,279.5,287.6,257.4,286.5L257.4,286.5z"/>
		<path class="st1" d="M407.6,274.2c-13.4-8.2-23.8-19.7-31-34.8c-7.2-15-10.9-32.7-10.8-53.1c0-20.6,3.6-38.4,10.7-53.5
			c7.1-15.1,17.4-26.7,30.9-34.7C420.8,90,436.7,86,455,86s34.2,4,47.7,12.1c13.4,8.1,23.7,19.6,30.8,34.7s10.7,32.8,10.7,53.2
			c0,20.4-3.6,38.1-10.8,53.2c-7.2,15.1-17.6,26.7-31,34.9c-13.4,8.2-29.2,12.3-47.4,12.3S421,282.4,407.6,274.2z M503.5,246
			c11.6-14,17.4-34,17.4-59.9s-5.7-45.8-17.2-59.8c-11.5-13.9-27.7-20.9-48.7-20.9c-20.7,0-36.9,7-48.5,21s-17.4,33.9-17.3,59.6
			c0,25.8,5.8,45.7,17.4,59.8c11.6,14.1,27.7,21.1,48.5,21.1C475.8,267,492,260,503.5,246z"/>
		<path class="st1" d="M725.3,275c0,2.7-1.2,5.3-3.2,7.1c-1.9,2-4.6,3.2-7.4,3.2c-2.4,0-4.9-1.1-7.5-3.3l-104-90.9v82.8
			c0.1,3.1-1,6.2-3.1,8.5c-4.7,4.3-11.9,4.3-16.7,0c-2.1-2.3-3.2-5.4-3.1-8.5V98.6c-0.1-3.1,1-6.2,3.1-8.5c4.7-4.3,11.9-4.3,16.7,0
			c2.1,2.3,3.2,5.4,3.1,8.5v79.8l99.2-88.1c1.9-1.9,4.5-3,7.2-3c2.8,0,5.4,1.1,7.3,3.1c1.9,1.9,3,4.4,3,7.1c-0.1,3-1.4,5.8-3.6,7.8
			l-89.8,78.9l94.8,82.8C723.8,269,725.2,271.9,725.3,275z"/>
		<path class="st1" d="M939.5,275.9c0,2.7-1.1,5.2-3.2,7c-2.1,1.8-4.8,2.8-7.7,2.8c-4.6,0-7.9-2.2-9.7-6.7l-19.7-45H794.4l-20,45
			c-1.8,4.5-5.1,6.7-9.7,6.7c-2.9,0-5.6-1-7.8-2.9c-2.1-1.7-3.4-4.3-3.3-7.1c0-1.5,0.4-3.1,1.1-4.4l79.5-176.8c1-2.4,2.7-4.5,5-5.8
			c2.2-1.3,4.7-2,7.2-2c2.6,0,5.3,0.7,7.5,2.1c2.2,1.4,3.9,3.3,5,5.7l79.5,176.8C939.1,272.6,939.5,274.2,939.5,275.9z M802.7,215
			h88.1l-44.2-99.8L802.7,215z"/>
		<path class="st1" d="M974.8,282.4c-2.1-2.3-3.2-5.4-3.1-8.5V98.6c-0.1-3.1,1-6.2,3.1-8.5c4.7-4.3,11.9-4.3,16.7,0
			c2.1,2.3,3.2,5.4,3,8.5v175.4c0.2,3.1-0.9,6.2-3,8.5C986.7,286.7,979.5,286.7,974.8,282.4z"/>
	</g>
</g>
</svg>
