<svg xmlns="http://www.w3.org/2000/svg" viewBox="0 0 298.38 372.49"><defs><style>.cls-1{opacity:0.8;}</style></defs><title>Asset 1</title><g id="Layer_2" data-name="Layer 2"><g id="Default"><circle class="cls-1" cx="36.52" cy="36.52" r="36.52"/><circle class="cls-1" cx="29.58" cy="342.91" r="29.58"/><circle class="cls-1" cx="265.46" cy="186.24" r="32.87"/><path d="M257.36,286.54a43,43,0,0,0-12.5,1.25,49.26,49.26,0,0,1-41.49-8.34l-57.79-43.11a48.82,48.82,0,0,1-19.08-44q.28-3,.29-6.11c0-2.05-.1-4.09-.29-6.1a48.82,48.82,0,0,1,19.08-44L203.37,93a49.27,49.27,0,0,1,41.49-8.35A42.69,42.69,0,0,0,257.36,86,43,43,0,1,0,212.44,40.9c0,.16,0,.33,0,.5a47.6,47.6,0,0,1-18.91,36.54l-58.13,43.37a49.45,49.45,0,0,1-48.18,6.16A63.4,63.4,0,1,0,87.26,245a49.39,49.39,0,0,1,48.12,6.19l58.12,43.37a47.58,47.58,0,0,1,18.92,36.54c0,.17,0,.34,0,.5a43,43,0,1,0,44.92-45Z"/></g></g></svg>