<svg id="Layer_1" data-name="Layer 1" xmlns="http://www.w3.org/2000/svg" viewBox="0 0 600 600"><defs><style>.cls-1{fill:#ffd7a3;}.cls-2{fill:#303030;}.cls-3{fill:#fdc88e;}.cls-4{fill:#ffe1b2;}.cls-5{fill:#623f33;}.cls-6{fill:#e4b07b;}.cls-7{fill:#ddd;}.cls-8{fill:#c4c4c4;}.cls-9{fill:#bd445a;}.cls-10{fill:#ff6473;}.cls-11{fill:#f05467;}.cls-12{fill:#fff;}.cls-13{font-size:18px;fill:#494949;font-family:Nunito-ExtraBold, Nunito;font-weight:800;}.cls-14{letter-spacing:-0.01em;}.cls-15{letter-spacing:0em;}</style></defs><title>team</title><path class="cls-1" d="M438.8,433A40,40,0,0,0,417,402.52l-17.23-8.62a5.06,5.06,0,0,0-6.77,2.3l-8.68-3.2C444.23,376.69,476,348,476,348c-31.5-61.5-23-155-48-208S356,68,300,68,197,87,172,140s-16.5,146.5-48,208c0,0,31.77,28.69,91.64,45L207,396.19a5,5,0,0,0-6.74-2.3l-15.72,7.86c-13.41,6.7-21.55,18.12-23.3,31.26l-.39,2.91h0l-9.19,68.91A24,24,0,0,0,175.41,532H424.59a24,24,0,0,0,23.79-27.17Z"/><path class="cls-2" d="M428,140c-25-53-72-72-128-72S197,87,172,140s-16.5,146.5-48,208c0,0,62,56,176,56s176-56,176-56C444.5,286.5,453,193,428,140Z"/><path d="M252,211c0-56,20.91-108.29,63.14-142.45-5-.33-10-.55-15.14-.55-56,0-103,19-128,72s-16.5,146.5-48,208c0,0,45.43,39.89,128,52.26Z"/><path class="cls-1" d="M439.19,435.92a40,40,0,0,0-25.84-32.25l-54.41-20A16,16,0,0,1,348,368.47V316H252v52.47a16,16,0,0,1-10.94,15.18l-54.41,20a40,40,0,0,0-25.84,32.25l-9.19,68.91A24,24,0,0,0,175.41,532H424.59a24,24,0,0,0,23.79-27.17Z"/><path class="cls-3" d="M252,368.47c0,.39,0,.78-.05,1.16,0,.2,0,.4-.06.6s0,.32-.06.47c0,.31-.09.61-.15.91v0a16,16,0,0,1-7.42,10.54C311.17,393.73,348,342.67,348,342.67L252,342v26.47Z"/><path class="cls-4" d="M412,228V212a40,40,0,0,0-40-40H228a40,40,0,0,0-40,40v16a24,24,0,0,0,0,48v8a48,48,0,0,0,29.54,44.31l51.69,21.54A80.05,80.05,0,0,0,300,356h0a80.05,80.05,0,0,0,30.77-6.15l51.69-21.54A48,48,0,0,0,412,284v-8a24,24,0,0,0,0-48Z"/><path class="cls-1" d="M370,195.63V175H212.81A40,40,0,0,0,188,212v16a24,24,0,0,0,0,48v8a48,48,0,0,0,29.54,44.31l51.69,21.54a78.84,78.84,0,0,0,7.73,2.74c-22.85-16.71-38.06-31.32-47-40.87a37.5,37.5,0,0,1-10-25.62V227.89C245.81,227.25,327.68,223.07,370,195.63Z"/><path class="cls-5" d="M244,260h0a8,8,0,0,1-8-8v-8a8,8,0,0,1,8-8h0a8,8,0,0,1,8,8v8A8,8,0,0,1,244,260Z"/><path class="cls-5" d="M356,260h0a8,8,0,0,1-8-8v-8a8,8,0,0,1,8-8h0a8,8,0,0,1,8,8v8A8,8,0,0,1,356,260Z"/><path class="cls-6" d="M300,316.22c-14.22,0-27.53-3.5-36.5-9.61a8,8,0,1,1,9-13.22c6.29,4.27,16.57,6.83,27.5,6.83s21.21-2.56,27.5-6.83a8,8,0,1,1,9,13.22C327.53,312.72,314.22,316.22,300,316.22Z"/><path class="cls-2" d="M204,212s51,5,80-8c4.08-1.83,16-28,16-28v36a260.45,260.45,0,0,0,75-17.33V166H198.55C202.18,184.3,204,212,204,212Z"/><path class="cls-7" d="M417,402.52l-17.23-8.62a5.1,5.1,0,0,0-7.18,3.37,96,96,0,0,1-185.27,0,5.07,5.07,0,0,0-7.14-3.35l-15.72,7.86c-13.41,6.7-21.55,18.12-23.3,31.26l-9.58,71.82A24,24,0,0,0,175.41,532H424.59a24,24,0,0,0,23.79-27.17L438.8,433A40,40,0,0,0,417,402.52Z"/><path class="cls-8" d="M164.84,421.12A39.17,39.17,0,0,0,161.2,433l-9.58,71.82A24,24,0,0,0,175.41,532H212V500a48,48,0,0,0-9.6-28.8Z"/><path class="cls-8" d="M435.16,421.12A39.17,39.17,0,0,1,438.8,433l9.58,71.82A24,24,0,0,1,424.59,532H388V500a48,48,0,0,1,9.6-28.8Z"/><path class="cls-9" d="M400,171.65c0,10.77-21.73,19.5-32.5,19.5a19.5,19.5,0,0,1,0-39C378.27,152.15,400,160.88,400,171.65Z"/><path class="cls-9" d="M400,171.65c0-10.77,21.73-19.5,32.5-19.5a19.5,19.5,0,0,1,0,39C421.73,191.15,400,182.42,400,171.65Z"/><path class="cls-10" d="M400,171.65c9.33,5.38,6,28.57.64,37.89A19.5,19.5,0,0,1,366.86,190C372.25,180.72,390.67,166.26,400,171.65Z"/><path class="cls-10" d="M400,171.65c-9.33-5.39-6-28.57-.64-37.9a19.5,19.5,0,0,1,33.78,19.5C427.75,162.58,409.33,177,400,171.65Z"/><path class="cls-11" d="M400,171.65c-9.33,5.38-6,28.57-.64,37.89A19.5,19.5,0,1,0,433.14,190C427.75,180.72,409.33,166.26,400,171.65Z"/><path class="cls-11" d="M400,171.65c9.33-5.39,6-28.57.64-37.9a19.5,19.5,0,0,0-33.78,19.5C372.25,162.58,390.67,177,400,171.65Z"/><circle class="cls-12" cx="400" cy="171.65" r="13"/><path d="M198.55,166c3.63,18.3,5.45,46,5.45,46a266.74,266.74,0,0,0,47-.23V211a204.22,204.22,0,0,1,5-45Z"/><text class="cls-13" transform="translate(227.67 494.34)">O<tspan class="cls-14" x="14.17" y="0">K</tspan><tspan class="cls-15" x="26.19" y="0">AI</tspan></text></svg>