<svg id="Layer_1" data-name="Layer 1" xmlns="http://www.w3.org/2000/svg" viewBox="0 0 600 600"><defs><style>.cls-1{fill:#f6b47b;}.cls-2{fill:#303030;}.cls-3{fill:#e2a071;}.cls-4{fill:#fdc88e;}.cls-5{fill:#623f33;}.cls-6{fill:#ddd;}.cls-7{fill:#c4c4c4;}.cls-8{fill:#a5a5a5;}.cls-9{font-size:18px;fill:#494949;font-family:Nunito-ExtraBold, Nunito;font-weight:800;}.cls-10{letter-spacing:-0.01em;}.cls-11{letter-spacing:0em;}</style></defs><title>team</title><path class="cls-1" d="M459.86,490.88l-.72-6.54a4.71,4.71,0,0,0-5.2-4.16l-.41,0-7-56.21a32,32,0,0,0-21.63-26.39l-51.75-17.25q-1.56,3.51-3.44,6.86l-10.74-3.58A16,16,0,0,1,348,368.47v-25.8l34.46-14.36A48,48,0,0,0,412,284v-8a24,24,0,0,0,0-48V212a40,40,0,0,0-40-40H228a40,40,0,0,0-40,40v16a24,24,0,0,0,0,48v8a48,48,0,0,0,29.54,44.31L252,342.67v25.8a16,16,0,0,1-10.94,15.18l-10.74,3.58c-1.25-2.23-2.4-4.51-3.44-6.86l-51.75,17.25A32,32,0,0,0,153.5,424l-7,56.22-.41-.05a4.71,4.71,0,0,0-5.2,4.16l-.72,6.54a4.71,4.71,0,0,0,4.16,5.2l11.7,1.3V516a16,16,0,0,0,16,16H428a16,16,0,0,0,16-16V497.38l11.7-1.3A4.71,4.71,0,0,0,459.86,490.88Z"/><path class="cls-2" d="M412,124.21c0-.07,0-.14,0-.21a39.76,39.76,0,0,0-57.28-35.93,35.34,35.34,0,0,0-42.24-8.42,23.86,23.86,0,0,0-42.15,2.18,31.89,31.89,0,0,0-47.94,14.1A15.82,15.82,0,0,0,212,92a16,16,0,0,0-16,16s-40-.33-40,48c0,22.53,16,88,16,88H428s8-37,8-88C436,142.14,423.12,131.14,412,124.21Z"/><path d="M287.3,195.53a39.78,39.78,0,0,1,.32-79.09A39.37,39.37,0,0,1,298.91,69.1,23.57,23.57,0,0,0,292,68a24,24,0,0,0-21.67,13.83,31.89,31.89,0,0,0-47.94,14.1A15.82,15.82,0,0,0,212,92a16,16,0,0,0-16,16s-40-.33-40,48c0,22.53,16,88,16,88H287Z"/><path class="cls-3" d="M348,342H252v26.47a15.87,15.87,0,0,1-8,13.66C311.08,393.87,348,342,348,342Z"/><path class="cls-4" d="M412,228V212a40,40,0,0,0-40-40H228a40,40,0,0,0-40,40v16a24,24,0,0,0,0,48v8a48,48,0,0,0,29.54,44.31l51.69,21.54A80.05,80.05,0,0,0,300,356h0a80.05,80.05,0,0,0,30.77-6.15l51.69-21.54A48,48,0,0,0,412,284v-8a24,24,0,0,0,0-48Z"/><path class="cls-5" d="M244,260h0a8,8,0,0,1-8-8v-8a8,8,0,0,1,8-8h0a8,8,0,0,1,8,8v8A8,8,0,0,1,244,260Z"/><path class="cls-5" d="M356,260h0a8,8,0,0,1-8-8v-8a8,8,0,0,1,8-8h0a8,8,0,0,1,8,8v8A8,8,0,0,1,356,260Z"/><path class="cls-3" d="M300,316.22c-14.22,0-27.53-3.5-36.5-9.61a8,8,0,1,1,9-13.22c6.29,4.27,16.57,6.83,27.5,6.83s21.21-2.56,27.5-6.83a8,8,0,1,1,9,13.22C327.53,312.72,314.22,316.22,300,316.22Z"/><path class="cls-1" d="M230,311.72a37.47,37.47,0,0,1-10-25.62V172.81A40,40,0,0,0,188,212v16a24,24,0,0,0,0,48v8a48,48,0,0,0,29.54,44.31l51.69,21.54a78.84,78.84,0,0,0,7.73,2.74C254.11,335.88,238.9,321.27,230,311.72Z"/><path class="cls-6" d="M446.5,424a32,32,0,0,0-21.63-26.39l-51.75-17.25L324,412l-16,16H292l-16-16-49.12-31.63-51.75,17.25A32,32,0,0,0,153.5,424l-7.61,60.87L212,492v40H388V492h67Z"/><path class="cls-7" d="M212,498V479.93A32,32,0,0,0,204.19,459l-44-50.81A31.94,31.94,0,0,0,153.5,424l-8.36,66.85C157.87,491.62,191.71,495.59,212,498Z"/><path class="cls-8" d="M212,487.51l-65.94-7.33a4.71,4.71,0,0,0-5.2,4.16l-.72,6.54a4.71,4.71,0,0,0,4.16,5.2L212,503.6Z"/><path class="cls-7" d="M388,498V479.93A32,32,0,0,1,395.81,459l44-50.81A31.94,31.94,0,0,1,446.5,424l8.36,66.85C442.13,491.62,408.29,495.59,388,498Z"/><path class="cls-8" d="M388,487.51l65.94-7.33a4.71,4.71,0,0,1,5.2,4.16l.72,6.54a4.71,4.71,0,0,1-4.16,5.2L388,503.6Z"/><path class="cls-7" d="M248.44,370.66,276,412l-24,32-32-64,17.34-11.56A8,8,0,0,1,248.44,370.66Z"/><path class="cls-7" d="M351.56,370.66,324,412l24,32,32-64-17.34-11.56A8,8,0,0,0,351.56,370.66Z"/><path class="cls-7" d="M300,492h0a8,8,0,0,1-8-8V428h16v56A8,8,0,0,1,300,492Z"/><path class="cls-2" d="M400,140a27.69,27.69,0,0,0-12.5,3.07,39.83,39.83,0,0,0-72.92-17,27.7,27.7,0,0,0-21.16,0,40,40,0,1,0-4.51,49.42,27.65,27.65,0,0,0,30.18,0A39.53,39.53,0,0,0,374,178.19,28,28,0,1,0,400,140Z"/><circle cx="227" cy="151" r="38"/><text class="cls-9" transform="translate(227.67 480.34)">O<tspan class="cls-10" x="14.17" y="0">K</tspan><tspan class="cls-11" x="26.19" y="0">AI</tspan></text></svg>