<svg id="Layer_1" data-name="Layer 1" xmlns="http://www.w3.org/2000/svg" viewBox="0 0 600 600"><defs><style>.cls-1{fill:#ffd7a3;}.cls-2{fill:#fdc88e;}.cls-3{fill:#303030;}.cls-4{fill:#ffe1b2;}.cls-5{fill:#623f33;}.cls-6{fill:#e4b07b;}.cls-7{fill:#ddd;}.cls-8{fill:#c4c4c4;}.cls-9{font-size:18px;fill:#494949;font-family:Nunito-ExtraBold, Nunito;font-weight:800;}.cls-10{letter-spacing:-0.01em;}.cls-11{letter-spacing:0em;}</style></defs><title>team</title><path class="cls-1" d="M456.63,505,446.5,424a32,32,0,0,0-21.63-26.39l-39.05-13a16,16,0,0,0-15.38,2.87l-11.5-3.83A16,16,0,0,1,348,368.47V342.66l34.46-14.35A48,48,0,0,0,412,284v-8a24,24,0,0,0,18.19-39.65C437,211.64,456.07,133.45,436,100l8-32s-84,2-128,16l16-16s-112.5,0-136,40h0s-40-.33-40,48c0,17.69,9.87,61.86,14.1,80A24,24,0,0,0,188,276v8a48,48,0,0,0,29.54,44.31L252,342.67v25.8a16,16,0,0,1-10.94,15.18l-11.5,3.83a16,16,0,0,0-15.38-2.87l-39.05,13A32,32,0,0,0,153.5,424l-10.13,81a24,24,0,0,0,23.82,27H432.81A24,24,0,0,0,456.63,505Z"/><path class="cls-2" d="M348,342.67H252v25.8a15.87,15.87,0,0,1-8,13.66C311.08,393.87,348,342.67,348,342.67Z"/><path class="cls-3" d="M172,244s-16-65.47-16-88c0-48.33,40-48,40-48h0C219.5,68,332,68,332,68L316,84c44-14,128-16,128-16l-8,32c24,40-8,144-8,144Z"/><path d="M332,68s-112.5,0-136,40h0s-40-.33-40,48c0,22.53,16,88,16,88S338.33,169.67,444,68c0,0-84,2-128,16Z"/><path class="cls-4" d="M412,228V212a40,40,0,0,0-40-40H228a40,40,0,0,0-40,40v16a24,24,0,0,0,0,48v8a48,48,0,0,0,29.54,44.31l51.69,21.54A80.05,80.05,0,0,0,300,356h0a80.05,80.05,0,0,0,30.77-6.15l51.69-21.54A48,48,0,0,0,412,284v-8a24,24,0,0,0,0-48Z"/><path class="cls-5" d="M244,260h0a8,8,0,0,1-8-8v-8a8,8,0,0,1,8-8h0a8,8,0,0,1,8,8v8A8,8,0,0,1,244,260Z"/><path class="cls-5" d="M356,260h0a8,8,0,0,1-8-8v-8a8,8,0,0,1,8-8h0a8,8,0,0,1,8,8v8A8,8,0,0,1,356,260Z"/><path class="cls-6" d="M300,316.22c-14.22,0-27.53-3.5-36.5-9.61a8,8,0,1,1,9-13.22c6.29,4.27,16.57,6.83,27.5,6.83s21.21-2.56,27.5-6.83a8,8,0,1,1,9,13.22C327.53,312.72,314.22,316.22,300,316.22Z"/><path class="cls-7" d="M456.63,505,446.5,424a32,32,0,0,0-21.63-26.39l-39.05-13a15.73,15.73,0,0,0-18.29,6.2,79.91,79.91,0,0,1-135.06,0,15.73,15.73,0,0,0-18.29-6.2l-39.05,13A32,32,0,0,0,153.5,424l-10.13,81a24,24,0,0,0,23.82,27H432.81A24,24,0,0,0,456.63,505Z"/><path class="cls-8" d="M160.17,408.17A31.94,31.94,0,0,0,153.5,424l-10.13,81a24,24,0,0,0,23.82,27H212V479.93A32,32,0,0,0,204.19,459Z"/><path class="cls-8" d="M439.83,408.17A31.94,31.94,0,0,1,446.5,424l10.13,81a24,24,0,0,1-23.82,27H388V479.93A32,32,0,0,1,395.81,459Z"/><path class="cls-1" d="M230,311.72a37.47,37.47,0,0,1-10-25.62V195.44c25.46-1.91,105.74-8.85,152-23.44H228a37.64,37.64,0,0,0-8,.88v-.07A40,40,0,0,0,188,212v16a24,24,0,0,0,0,48v8a48,48,0,0,0,29.54,44.31l51.69,21.54a79.6,79.6,0,0,0,7.72,2.74C254.11,335.88,238.9,321.27,230,311.72Z"/><text class="cls-9" transform="translate(224.67 462.34)">O<tspan class="cls-10" x="14.17" y="0">K</tspan><tspan class="cls-11" x="26.19" y="0">AI</tspan></text></svg>